<svg preserveAspectRatio="none" width="100%" height="100%" overflow="visible" style="display: block;" viewBox="0 0 17.5 17.5" fill="none" xmlns="http://www.w3.org/2000/svg">
<g id="Group">
<path id="Vector" d="M7.26505e-06 8.75C7.26505e-06 3.9175 3.91751 0 8.75001 0C13.5825 0 17.5 3.9175 17.5 8.75C17.5 13.5825 13.5825 17.5 8.75001 17.5C7.27001 17.5 5.87376 17.1319 4.65001 16.4819L1.19501 17.4644C1.03443 17.5099 0.864618 17.5117 0.703102 17.4697C0.541586 17.4276 0.394225 17.3432 0.27624 17.2251C0.158255 17.1071 0.0739229 16.9597 0.0319546 16.7982C-0.0100137 16.6366 -0.00809692 16.4668 0.0375072 16.3063L1.02001 12.8519C0.348469 11.589 -0.00183962 10.1803 7.26505e-06 8.75ZM5.00001 6.875C5.00001 7.04076 5.06585 7.19973 5.18307 7.31694C5.30028 7.43415 5.45925 7.5 5.62501 7.5H11.875C12.0408 7.5 12.1997 7.43415 12.3169 7.31694C12.4342 7.19973 12.5 7.04076 12.5 6.875C12.5 6.70924 12.4342 6.55027 12.3169 6.43306C12.1997 6.31585 12.0408 6.25 11.875 6.25H5.62501C5.45925 6.25 5.30028 6.31585 5.18307 6.43306C5.06585 6.55027 5.00001 6.70924 5.00001 6.875ZM5.62501 10C5.45925 10 5.30028 10.0658 5.18307 10.1831C5.06585 10.3003 5.00001 10.4592 5.00001 10.625C5.00001 10.7908 5.06585 10.9497 5.18307 11.0669C5.30028 11.1842 5.45925 11.25 5.62501 11.25H9.37501C9.54077 11.25 9.69974 11.1842 9.81695 11.0669C9.93416 10.9497 10 10.7908 10 10.625C10 10.4592 9.93416 10.3003 9.81695 10.1831C9.69974 10.0658 9.54077 10 9.37501 10H5.62501Z" fill="url(#paint0_linear_0_683)"/>
<path id="Vector_2" d="M5.00001 6.875C5.00001 7.04076 5.06586 7.19973 5.18307 7.31694C5.30028 7.43415 5.45925 7.5 5.62501 7.5H11.875C12.0408 7.5 12.1997 7.43415 12.3169 7.31694C12.4342 7.19973 12.5 7.04076 12.5 6.875C12.5 6.70924 12.4342 6.55027 12.3169 6.43306C12.1997 6.31585 12.0408 6.25 11.875 6.25H5.62501C5.45925 6.25 5.30028 6.31585 5.18307 6.43306C5.06586 6.55027 5.00001 6.70924 5.00001 6.875ZM5.62501 10C5.45925 10 5.30028 10.0658 5.18307 10.1831C5.06586 10.3003 5.00001 10.4592 5.00001 10.625C5.00001 10.7908 5.06586 10.9497 5.18307 11.0669C5.30028 11.1842 5.45925 11.25 5.62501 11.25H9.37501C9.54077 11.25 9.69974 11.1842 9.81695 11.0669C9.93416 10.9497 10 10.7908 10 10.625C10 10.4592 9.93416 10.3003 9.81695 10.1831C9.69974 10.0658 9.54077 10 9.37501 10H5.62501Z" fill="url(#paint1_linear_0_683)"/>
</g>
<defs>
<linearGradient id="paint0_linear_0_683" x1="0.625007" y1="3.28125" x2="15.9044" y2="29.33" gradientUnits="userSpaceOnUse">
<stop stop-color="#0FAFFF"/>
<stop offset="1" stop-color="#CC23D1"/>
</linearGradient>
<linearGradient id="paint1_linear_0_683" x1="5.65626" y1="6.3375" x2="6.21751" y2="11.7675" gradientUnits="userSpaceOnUse">
<stop stop-color="#FDFDFD"/>
<stop offset="1" stop-color="#CCEAFF"/>
</linearGradient>
</defs>
</svg>
