<svg preserveAspectRatio="none" width="100%" height="100%" overflow="visible" style="display: block;" viewBox="0 0 20 20" fill="none" xmlns="http://www.w3.org/2000/svg">
<g id="logos:telegram" clip-path="url(#clip0_0_664)">
<path id="Vector" d="M10 0C7.34844 0 4.80312 1.05422 2.92969 2.92891C1.05433 4.80435 0.000536638 7.34779 0 10C0 12.6511 1.05469 15.1964 2.92969 17.0711C4.80312 18.9458 7.34844 20 10 20C12.6516 20 15.1969 18.9458 17.0703 17.0711C18.9453 15.1964 20 12.6511 20 10C20 7.34891 18.9453 4.80359 17.0703 2.92891C15.1969 1.05422 12.6516 0 10 0Z" fill="url(#paint0_linear_0_664)"/>
<path id="Vector_2" d="M4.52633 9.89441C7.44196 8.62441 9.38571 7.78712 10.3576 7.38253C13.1357 6.22738 13.7123 6.02675 14.0888 6.01996C14.1716 6.01863 14.356 6.0391 14.4763 6.13636C14.5763 6.21839 14.6045 6.32933 14.6185 6.40722C14.631 6.48503 14.6482 6.66238 14.6341 6.80082C14.4841 8.38207 13.8326 12.2193 13.5013 13.9903C13.3623 14.7397 13.0857 14.991 12.8185 15.0155C12.2373 15.0689 11.7966 14.6318 11.2341 14.2632C10.3545 13.6861 9.85758 13.3271 9.0029 12.7641C8.0154 12.1135 8.65602 11.7558 9.21852 11.1714C9.3654 11.0185 11.9248 8.69113 11.9732 8.48003C11.9795 8.45363 11.9857 8.35519 11.9263 8.30332C11.8685 8.25128 11.7826 8.2691 11.7201 8.28316C11.631 8.30316 10.2263 9.23254 7.50133 11.0711C7.1029 11.3452 6.74196 11.4788 6.41696 11.4718C6.06071 11.4641 5.37321 11.2699 4.86227 11.1039C4.23727 10.9003 3.73883 10.7927 3.78258 10.4469C3.80446 10.2669 4.0529 10.0827 4.52633 9.89441Z" fill="var(--fill-0, white)"/>
</g>
<defs>
<linearGradient id="paint0_linear_0_664" x1="10" y1="0" x2="10" y2="20" gradientUnits="userSpaceOnUse">
<stop stop-color="#2AABEE"/>
<stop offset="1" stop-color="#229ED9"/>
</linearGradient>
<clipPath id="clip0_0_664">
<rect width="20" height="20" fill="white"/>
</clipPath>
</defs>
</svg>
