<svg preserveAspectRatio="none" width="100%" height="100%" overflow="visible" style="display: block;" viewBox="0 0 18.9319 14.875" fill="none" xmlns="http://www.w3.org/2000/svg">
<g id="Group">
<path id="Vector" d="M0 3.38068V11.8324C0 12.6393 0.32056 13.4132 0.891161 13.9838C1.46176 14.5544 2.23566 14.875 3.04261 14.875H15.8892C16.6962 14.875 17.4701 14.5544 18.0407 13.9838C18.6113 13.4132 18.9318 12.6393 18.9318 11.8324V3.38068L9.7864 8.31107C9.6879 8.36409 9.57778 8.39185 9.46591 8.39185C9.35404 8.39185 9.24392 8.36409 9.14542 8.31107L0 3.38068Z" fill="var(--fill-0, #367AF2)"/>
<path id="Vector_2" d="M0 3.38068V11.8324C0 12.6393 0.32056 13.4132 0.891161 13.9838C1.46176 14.5544 2.23566 14.875 3.04261 14.875H15.8892C16.6962 14.875 17.4701 14.5544 18.0407 13.9838C18.6113 13.4132 18.9318 12.6393 18.9318 11.8324V3.38068L9.7864 8.31107C9.6879 8.36409 9.57778 8.39185 9.46591 8.39185C9.35404 8.39185 9.24392 8.36409 9.14542 8.31107L0 3.38068Z" fill="url(#paint0_linear_0_668)"/>
<path id="Vector_3" d="M0 3.38068V11.8324C0 12.6393 0.32056 13.4132 0.891161 13.9838C1.46176 14.5544 2.23566 14.875 3.04261 14.875H15.8892C16.6962 14.875 17.4701 14.5544 18.0407 13.9838C18.6113 13.4132 18.9318 12.6393 18.9318 11.8324V3.38068L9.7864 8.31107C9.6879 8.36409 9.57778 8.39185 9.46591 8.39185C9.35404 8.39185 9.24392 8.36409 9.14542 8.31107L0 3.38068Z" fill="url(#paint1_linear_0_668)"/>
<path id="Vector_4" d="M0 3.38068V11.8324C0 12.6393 0.32056 13.4132 0.891161 13.9838C1.46176 14.5544 2.23566 14.875 3.04261 14.875H15.8892C16.6962 14.875 17.4701 14.5544 18.0407 13.9838C18.6113 13.4132 18.9318 12.6393 18.9318 11.8324V3.38068L9.7864 8.31107C9.6879 8.36409 9.57778 8.39185 9.46591 8.39185C9.35404 8.39185 9.24392 8.36409 9.14542 8.31107L0 3.38068Z" fill="url(#paint2_linear_0_668)" fill-opacity="0.75"/>
<path id="Vector_5" d="M0 3.38068V11.8324C0 12.6393 0.32056 13.4132 0.891161 13.9838C1.46176 14.5544 2.23566 14.875 3.04261 14.875H15.8892C16.6962 14.875 17.4701 14.5544 18.0407 13.9838C18.6113 13.4132 18.9318 12.6393 18.9318 11.8324V3.38068L9.7864 8.31107C9.6879 8.36409 9.57778 8.39185 9.46591 8.39185C9.35404 8.39185 9.24392 8.36409 9.14542 8.31107L0 3.38068Z" fill="url(#paint3_linear_0_668)" fill-opacity="0.7"/>
<path id="Vector_6" d="M3.0427 0C2.23575 0 1.46185 0.32056 0.89125 0.891161C0.320649 1.46176 8.87784e-05 2.23566 8.87784e-05 3.04261V3.7796L9.14551 8.70999C9.24401 8.76301 9.35413 8.79077 9.466 8.79077C9.57787 8.79077 9.68799 8.76301 9.78649 8.70999L18.9319 3.7796V3.04261C18.9319 2.23566 18.6113 1.46176 18.0407 0.891161C17.4701 0.32056 16.6962 0 15.8893 0H3.0427Z" fill="url(#paint4_linear_0_668)"/>
</g>
<defs>
<linearGradient id="paint0_linear_0_668" x1="11.8696" y1="5.63357" x2="16.8101" y2="15.4653" gradientUnits="userSpaceOnUse">
<stop offset="0.199" stop-color="#0094F0" stop-opacity="0"/>
<stop offset="0.431" stop-color="#0094F0"/>
</linearGradient>
<linearGradient id="paint1_linear_0_668" x1="6.76136" y1="4.59097" x2="1.97026" y2="15.7729" gradientUnits="userSpaceOnUse">
<stop offset="0.191" stop-color="#0094F0" stop-opacity="0"/>
<stop offset="0.431" stop-color="#0094F0"/>
</linearGradient>
<linearGradient id="paint2_linear_0_668" x1="14.4578" y1="10.2381" x2="15.2347" y2="15.9399" gradientUnits="userSpaceOnUse">
<stop stop-color="#2764E7" stop-opacity="0"/>
<stop offset="1" stop-color="#2764E7"/>
</linearGradient>
<linearGradient id="paint3_linear_0_668" x1="12.3956" y1="4.79245" x2="13.8135" y2="16.3963" gradientUnits="userSpaceOnUse">
<stop offset="0.533" stop-color="#FF6CE8" stop-opacity="0"/>
<stop offset="1" stop-color="#FF6CE8"/>
</linearGradient>
<linearGradient id="paint4_linear_0_668" x1="5.62419" y1="-2.72077" x2="11.4288" y2="12.4652" gradientUnits="userSpaceOnUse">
<stop stop-color="#6CE0FF"/>
<stop offset="0.462" stop-color="#29C3FF"/>
<stop offset="1" stop-color="#4894FE"/>
</linearGradient>
</defs>
</svg>
