<svg preserveAspectRatio="none" width="100%" height="100%" overflow="visible" style="display: block;" viewBox="0 0 110 40" fill="none" xmlns="http://www.w3.org/2000/svg">
<g id="logo">
<g id="Vector">
<path d="M38.599 1.25204C39.4614 1.14443 39.7998 1.82928 39.5729 2.57858L30.6602 31.1703C30.1206 32.9292 29.6046 34.6981 29.0062 36.4374C28.8573 36.8705 28.4252 37.4182 27.9128 37.2534C27.6427 37.0257 27.2375 36.4355 27.0847 36.1119C24.8529 31.3848 22.43 26.7235 20.1597 22.0211C19.9812 21.7033 19.6516 21.19 19.3363 21.0148C15.9765 19.1483 12.407 17.6386 8.99402 15.8731C7.52707 15.1142 6.10873 14.3973 4.6161 13.7015C4.29883 13.5537 3.84159 13.336 3.74895 12.9737C3.56606 12.2422 4.02136 11.9983 4.63601 11.7906C9.70721 10.1362 14.8515 8.67091 19.9312 7.0485L32.2546 3.22097C34.1733 2.62733 36.7218 1.71771 38.599 1.25204Z" fill="#3B6EA0"/>
<path d="M18.391 29.161C18.8625 29.1367 19.4919 29.6394 19.2876 30.0237C18.9607 30.639 18.0816 31.3506 17.5655 31.8728L13.5311 35.9103C12.8736 36.5627 11.2373 38.3304 10.5911 38.7593C10.5392 38.7569 10.4884 38.7536 10.4369 38.7467C10.1668 38.7106 9.94912 38.5565 9.78893 38.3372C9.68864 38.1999 9.6454 38.022 9.68099 37.8547C9.7877 37.3523 17.5946 29.6146 18.391 29.161Z" fill="#3B6EA0"/>
<path d="M10.8446 21.5872C11.9741 21.7151 11.8079 22.4506 11.1732 23.1225C9.57514 24.8144 7.8938 26.405 6.31151 28.1127C5.62542 28.8532 3.78932 30.8166 2.97863 31.2486L2.92833 31.2398C2.65747 31.1894 2.39919 31.0248 2.24768 30.791C2.17793 30.6833 2.12477 30.5039 2.16671 30.3785C2.35096 29.8279 9.4851 22.6948 10.3453 21.9268C10.4993 21.7892 10.6579 21.6778 10.8446 21.5872Z" fill="#3B6EA0"/>
<path d="M10.9061 19.7701C10.9061 14.2446 15.3855 9.76523 20.911 9.76523H97.8238C103.349 9.76523 107.829 14.2446 107.829 19.7701C107.829 25.2957 103.349 29.7751 97.8238 29.7751H20.911C15.3855 29.7751 10.9061 25.2957 10.9061 19.7701Z" fill="white"/>
<path d="M25.708 15.6443H28.1009L30.8655 18.8474L33.6849 15.6229H36.111V23.9492L33.8131 23.9388V19.3039L30.8655 22.1812L28.1009 19.296L28.1592 23.9388L25.708 23.9615V15.6443Z" fill="var(--fill-0, #3B6EA0)"/>
<path d="M37.6186 15.623L40.0757 15.6229L44.2204 20.7546L44.2269 15.6229L46.6142 15.623V23.9258H43.9546L40.0342 18.8565L40.0757 23.9255L37.6186 23.9258V15.623Z" fill="var(--fill-0, #3B6EA0)"/>
<path d="M51.9325 15.634L54.3235 15.6229L58.5142 20.7324L58.4619 15.6363L60.7864 15.6348L60.7395 23.9622C59.9672 23.9827 59.1354 23.9492 58.3577 23.9321C57.0097 22.2315 54.2157 18.9104 54.2157 18.9104L54.2861 23.9818H51.9072L51.9325 15.634Z" fill="var(--fill-0, #3B6EA0)"/>
<path d="M71.6899 15.6229L80.2931 15.623V17.7202H77.2481L77.2549 20.8505V23.9643H74.8843L74.8887 17.7175H71.6899V15.6229Z" fill="var(--fill-0, #3B6EA0)"/>
<path d="M50.3834 15.6282V23.9147H48.138V15.6229L50.3834 15.6282Z" fill="var(--fill-0, #3B6EA0)"/>
<path d="M83.7347 15.6282V23.9147H81.4893V15.6229L83.7347 15.6282Z" fill="var(--fill-0, #3B6EA0)"/>
<path d="M66.421 23.9147C65.5434 23.9147 64.7628 23.7351 64.0792 23.3759C63.4057 23.0167 62.87 22.5278 62.4721 21.9091C62.0844 21.2805 61.8905 20.5671 61.8905 19.7688C61.8905 18.9606 62.0844 18.2472 62.4721 17.6285C62.87 16.9999 63.4057 16.511 64.0792 16.1617C64.7628 15.8025 65.5434 15.6229 66.421 15.6229C67.2883 15.6229 68.0637 15.8025 68.7474 16.1617C69.431 16.511 69.9667 16.9949 70.3545 17.6135C70.7422 18.2322 70.9361 18.9506 70.9361 19.7688C70.9361 20.5671 70.7422 21.2805 70.3545 21.9091C69.9667 22.5278 69.431 23.0167 68.7474 23.3759C68.0637 23.7351 67.2883 23.9147 66.421 23.9147ZM66.421 21.9989C66.8189 21.9989 67.176 21.9091 67.4923 21.7295C67.8087 21.5499 68.0586 21.2955 68.2423 20.9662C68.426 20.6269 68.5178 20.2278 68.5178 19.7688C68.5178 19.2998 68.426 18.9007 68.2423 18.5714C68.0586 18.2422 67.8087 17.9877 67.4923 17.8081C67.176 17.6285 66.8189 17.5387 66.421 17.5387C66.023 17.5387 65.6659 17.6285 65.3496 17.8081C65.0332 17.9877 64.7781 18.2422 64.5843 18.5714C64.4006 18.9007 64.3088 19.2998 64.3088 19.7688C64.3088 20.2278 64.4006 20.6269 64.5843 20.9662C64.7781 21.2955 65.0332 21.5499 65.3496 21.7295C65.6659 21.9091 66.023 21.9989 66.421 21.9989Z" fill="var(--fill-0, #3B6EA0)"/>
<path d="M87.4471 23.3759C88.1307 23.7351 88.9113 23.9147 89.7888 23.9147C90.6561 23.9147 91.4316 23.7351 92.1153 23.3759C92.7989 23.0167 93.3346 22.5278 93.7224 21.9091C93.9047 21.6136 94.0441 21.2993 94.1407 20.9662H91.6102C91.4265 21.2955 91.1765 21.5499 90.8602 21.7295C90.5439 21.9091 90.1868 21.9989 89.7888 21.9989C89.3909 21.9989 89.0337 21.9091 88.7174 21.7295C88.4011 21.5499 88.146 21.2955 87.9521 20.9662C87.7685 20.6269 87.6766 20.2278 87.6766 19.7688C87.6766 19.2998 87.7685 18.9007 87.9521 18.5714C88.146 18.2422 88.4011 17.9877 88.7174 17.8081C89.0337 17.6285 89.3909 17.5387 89.7888 17.5387C90.1868 17.5387 90.5439 17.6285 90.8602 17.8081C91.1765 17.9877 91.4265 18.2422 91.6102 18.5714H94.1462C94.0494 18.2292 93.9081 17.9099 93.7224 17.6135C93.3346 16.9949 92.7989 16.511 92.1153 16.1617C91.4316 15.8025 90.6561 15.6229 89.7888 15.6229C88.9113 15.6229 88.1307 15.8025 87.4471 16.1617C86.7736 16.511 86.2379 16.9999 85.84 17.6285C85.4522 18.2472 85.2584 18.9606 85.2584 19.7688C85.2584 20.5671 85.4522 21.2805 85.84 21.9091C86.2379 22.5278 86.7736 23.0167 87.4471 23.3759Z" fill="var(--fill-0, #3B6EA0)"/>
<path d="M20.439 23.9147C19.5615 23.9147 18.7809 23.7351 18.0973 23.3759C17.4238 23.0167 16.8881 22.5278 16.4902 21.9091C16.1024 21.2805 15.9086 20.5671 15.9086 19.7688C15.9086 18.9606 16.1024 18.2472 16.4902 17.6285C16.8881 16.9999 17.4238 16.511 18.0973 16.1617C18.7809 15.8025 19.5615 15.6229 20.439 15.6229C21.3064 15.6229 22.0818 15.8025 22.7655 16.1617C23.4491 16.511 23.9848 16.9949 24.3726 17.6135C24.7603 18.2322 24.9542 18.9506 24.9542 19.7688C24.9542 20.5671 24.7603 21.2805 24.3726 21.9091C23.9848 22.5278 23.4491 23.0167 22.7655 23.3759C22.0818 23.7351 21.3064 23.9147 20.439 23.9147ZM20.439 21.9989C20.837 21.9989 21.1941 21.9091 21.5104 21.7295C21.8268 21.5499 22.0767 21.2955 22.2604 20.9662C22.4441 20.6269 22.5359 20.2278 22.5359 19.7688C22.5359 19.2998 22.4441 18.9007 22.2604 18.5714C22.0767 18.2422 21.8268 17.9877 21.5104 17.8081C21.1941 17.6285 20.837 17.5387 20.439 17.5387C20.0411 17.5387 19.684 17.6285 19.3676 17.8081C19.0513 17.9877 18.7962 18.2422 18.6024 18.5714C18.4187 18.9007 18.3269 19.2998 18.3269 19.7688C18.3269 20.2278 18.4187 20.6269 18.6024 20.9662C18.7962 21.2955 19.0513 21.5499 19.3676 21.7295C19.684 21.9091 20.0411 21.9989 20.439 21.9989Z" fill="var(--fill-0, #3B6EA0)"/>
<path d="M95.3226 23.7519V15.6229H102.201V17.4988H97.6401V21.876H102.201V23.7519H95.3226ZM97.4024 20.7959V18.818H101.739V20.7959H97.4024Z" fill="var(--fill-0, #3B6EA0)"/>
</g>
</g>
</svg>
