<svg width="29" height="23" viewBox="0 0 29 23" fill="none" xmlns="http://www.w3.org/2000/svg">
<path d="M0 5.07129V17.7488C0 18.9593 0.48084 20.1201 1.33674 20.976C2.19264 21.8319 3.35349 22.3128 4.56392 22.3128H23.8338C25.0442 22.3128 26.2051 21.8319 27.061 20.976C27.9169 20.1201 28.3977 18.9593 28.3977 17.7488V5.07129L14.6796 12.4669C14.5318 12.5464 14.3667 12.588 14.1989 12.588C14.0311 12.588 13.8659 12.5464 13.7181 12.4669L0 5.07129Z" fill="#367AF2"/>
<path d="M0 5.07129V17.7488C0 18.9593 0.48084 20.1201 1.33674 20.976C2.19264 21.8319 3.35349 22.3128 4.56392 22.3128H23.8338C25.0442 22.3128 26.2051 21.8319 27.061 20.976C27.9169 20.1201 28.3977 18.9593 28.3977 17.7488V5.07129L14.6796 12.4669C14.5318 12.5464 14.3667 12.588 14.1989 12.588C14.0311 12.588 13.8659 12.5464 13.7181 12.4669L0 5.07129Z" fill="url(#paint0_linear_382_2017)"/>
<path d="M0 5.07129V17.7488C0 18.9593 0.48084 20.1201 1.33674 20.976C2.19264 21.8319 3.35349 22.3128 4.56392 22.3128H23.8338C25.0442 22.3128 26.2051 21.8319 27.061 20.976C27.9169 20.1201 28.3977 18.9593 28.3977 17.7488V5.07129L14.6796 12.4669C14.5318 12.5464 14.3667 12.588 14.1989 12.588C14.0311 12.588 13.8659 12.5464 13.7181 12.4669L0 5.07129Z" fill="url(#paint1_linear_382_2017)"/>
<path d="M0 5.07129V17.7488C0 18.9593 0.48084 20.1201 1.33674 20.976C2.19264 21.8319 3.35349 22.3128 4.56392 22.3128H23.8338C25.0442 22.3128 26.2051 21.8319 27.061 20.976C27.9169 20.1201 28.3977 18.9593 28.3977 17.7488V5.07129L14.6796 12.4669C14.5318 12.5464 14.3667 12.588 14.1989 12.588C14.0311 12.588 13.8659 12.5464 13.7181 12.4669L0 5.07129Z" fill="url(#paint2_linear_382_2017)" fill-opacity="0.75"/>
<path d="M0 5.07129V17.7488C0 18.9593 0.48084 20.1201 1.33674 20.976C2.19264 21.8319 3.35349 22.3128 4.56392 22.3128H23.8338C25.0442 22.3128 26.2051 21.8319 27.061 20.976C27.9169 20.1201 28.3977 18.9593 28.3977 17.7488V5.07129L14.6796 12.4669C14.5318 12.5464 14.3667 12.588 14.1989 12.588C14.0311 12.588 13.8659 12.5464 13.7181 12.4669L0 5.07129Z" fill="url(#paint3_linear_382_2017)" fill-opacity="0.7"/>
<path d="M4.56404 0C3.35362 0 2.19276 0.48084 1.33686 1.33674C0.480962 2.19264 0.00012207 3.35349 0.00012207 4.56392V5.6694L13.7183 13.065C13.866 13.1445 14.0312 13.1862 14.199 13.1862C14.3668 13.1862 14.532 13.1445 14.6797 13.065L28.3979 5.6694V4.56392C28.3979 3.35349 27.917 2.19264 27.0611 1.33674C26.2052 0.48084 25.0444 0 23.8339 0H4.56404Z" fill="url(#paint4_linear_382_2017)"/>
<defs>
<linearGradient id="paint0_linear_382_2017" x1="17.8044" y1="8.45062" x2="25.2152" y2="23.1982" gradientUnits="userSpaceOnUse">
<stop offset="0.199" stop-color="#0094F0" stop-opacity="0"/>
<stop offset="0.431" stop-color="#0094F0"/>
</linearGradient>
<linearGradient id="paint1_linear_382_2017" x1="10.142" y1="6.88672" x2="2.95539" y2="23.6596" gradientUnits="userSpaceOnUse">
<stop offset="0.191" stop-color="#0094F0" stop-opacity="0"/>
<stop offset="0.431" stop-color="#0094F0"/>
</linearGradient>
<linearGradient id="paint2_linear_382_2017" x1="21.6867" y1="15.3574" x2="22.8521" y2="23.9101" gradientUnits="userSpaceOnUse">
<stop stop-color="#2764E7" stop-opacity="0"/>
<stop offset="1" stop-color="#2764E7"/>
</linearGradient>
<linearGradient id="paint3_linear_382_2017" x1="18.5934" y1="7.18895" x2="20.7202" y2="24.5947" gradientUnits="userSpaceOnUse">
<stop offset="0.533" stop-color="#FF6CE8" stop-opacity="0"/>
<stop offset="1" stop-color="#FF6CE8"/>
</linearGradient>
<linearGradient id="paint4_linear_382_2017" x1="8.43628" y1="-4.08116" x2="17.1432" y2="18.6979" gradientUnits="userSpaceOnUse">
<stop stop-color="#6CE0FF"/>
<stop offset="0.462" stop-color="#29C3FF"/>
<stop offset="1" stop-color="#4894FE"/>
</linearGradient>
</defs>
</svg>
