<svg width="76" height="76" viewBox="0 0 76 76" fill="none" xmlns="http://www.w3.org/2000/svg">
<path d="M72.8943 0.0223998C74.6191 -0.192833 75.2959 1.17688 74.8421 2.67547L57.0167 59.8589C55.9375 63.3768 54.9055 66.9144 53.7088 70.3932C53.4108 71.2594 52.5468 72.3546 51.5219 72.025C50.9818 71.5698 50.1713 70.3894 49.8657 69.7421C45.4021 60.288 40.5562 50.9654 36.0157 41.5606C35.6586 40.9249 34.9996 39.8982 34.3689 39.5479C27.6493 35.8149 20.5102 32.7955 13.6843 29.2644C10.7504 27.7468 7.91375 26.3129 4.92849 24.9214C4.29395 24.6256 3.37946 24.1904 3.19418 23.4657C2.82841 22.0026 3.73901 21.515 4.9683 21.0996C15.1107 17.7908 25.3994 14.8601 35.5588 11.6153L60.2056 3.96026C64.0428 2.77298 69.1398 0.953737 72.8943 0.0223998Z" fill="#3B6EA0"/>
<path d="M32.4783 55.8402C33.4213 55.7918 34.6801 56.7971 34.2716 57.5657C33.6177 58.7963 31.8595 60.2195 30.8272 61.2639L22.7586 69.339C21.4434 70.6436 18.1708 74.179 16.8785 75.0368C16.7747 75.032 16.6732 75.0256 16.5701 75.0117C16.0298 74.9395 15.5945 74.6314 15.2741 74.1926C15.0736 73.918 14.9871 73.5624 15.0583 73.2277C15.2717 72.223 30.8854 56.7476 32.4783 55.8402Z" fill="#3B6EA0"/>
<path d="M17.3854 40.6926C19.6445 40.9485 19.3121 42.4194 18.0428 43.7633C14.8466 47.147 11.4839 50.3283 8.31931 53.7438C6.94713 55.2246 3.27494 59.1515 1.65356 60.0155L1.55294 59.9979C1.01123 59.897 0.494671 59.568 0.191658 59.1004C0.0521459 58.8849 -0.0541732 58.5261 0.0297159 58.2754C0.398206 57.1742 14.6665 42.908 16.3868 41.3719C16.6949 41.0968 17.0121 40.8739 17.3854 40.6926Z" fill="#3B6EA0"/>
</svg>