<svg width="212" height="76" viewBox="0 0 212 76" fill="none" xmlns="http://www.w3.org/2000/svg">
<path d="M72.8943 0.0223998C74.6191 -0.192833 75.2959 1.17688 74.8421 2.67547L57.0167 59.8589C55.9375 63.3768 54.9055 66.9144 53.7088 70.3932C53.4108 71.2594 52.5468 72.3546 51.5219 72.025C50.9818 71.5698 50.1713 70.3894 49.8657 69.7421C45.4021 60.288 40.5562 50.9654 36.0157 41.5606C35.6586 40.9249 34.9996 39.8982 34.3689 39.5479C27.6493 35.8149 20.5102 32.7955 13.6843 29.2644C10.7504 27.7468 7.91375 26.3129 4.92849 24.9214C4.29395 24.6256 3.37946 24.1904 3.19418 23.4657C2.82841 22.0026 3.73901 21.515 4.9683 21.0996C15.1107 17.7908 25.3994 14.8601 35.5588 11.6153L60.2056 3.96026C64.0428 2.77298 69.1398 0.953737 72.8943 0.0223998Z" fill="#3B6EA0"/>
<path d="M32.4783 55.8402C33.4213 55.7918 34.6801 56.7971 34.2716 57.5657C33.6177 58.7963 31.8595 60.2195 30.8272 61.2639L22.7586 69.339C21.4434 70.6436 18.1708 74.179 16.8785 75.0368C16.7747 75.032 16.6732 75.0256 16.5701 75.0117C16.0298 74.9395 15.5945 74.6314 15.2741 74.1926C15.0736 73.918 14.9871 73.5624 15.0583 73.2277C15.2717 72.223 30.8854 56.7476 32.4783 55.8402Z" fill="#3B6EA0"/>
<path d="M17.3854 40.6926C19.6445 40.9485 19.3121 42.4194 18.0428 43.7633C14.8466 47.147 11.4839 50.3283 8.31931 53.7438C6.94713 55.2246 3.27494 59.1515 1.65356 60.0155L1.55294 59.9979C1.01123 59.897 0.494671 59.568 0.191658 59.1004C0.0521459 58.8849 -0.0541732 58.5261 0.0297159 58.2754C0.398206 57.1742 14.6665 42.908 16.3868 41.3719C16.6949 41.0968 17.0121 40.8739 17.3854 40.6926Z" fill="#3B6EA0"/>
<path d="M17.5085 37.0586C17.5085 26.0075 26.4672 17.0488 37.5184 17.0488H191.344C202.395 17.0488 211.354 26.0075 211.354 37.0586C211.354 48.1097 202.395 57.0684 191.344 57.0684H37.5184C26.4672 57.0684 17.5085 48.1097 17.5085 37.0586Z" fill="white"/>
<path d="M47.1123 28.8069H51.8982L57.4273 35.213L63.0661 28.7641H67.9183V45.4167L63.3224 45.396V36.1261L57.4273 41.8806L51.8982 36.1103L52.0146 45.396L47.1123 45.4412V28.8069Z" fill="#3B6EA0"/>
<path d="M70.9336 28.7643L75.8476 28.7641L84.1372 39.0275L84.15 28.7641L88.9248 28.7643V45.37H83.6054L75.7647 35.2314L75.8476 45.3693L70.9336 45.37V28.7643Z" fill="#3B6EA0"/>
<path d="M99.5612 28.7863L104.343 28.7641L112.725 38.9831L112.62 28.7909L117.269 28.7879L117.175 45.4427C115.631 45.4838 113.967 45.4167 112.412 45.3824C109.716 41.9813 104.128 35.3391 104.128 35.3391L104.269 45.4819H99.5107L99.5612 28.7863Z" fill="#3B6EA0"/>
<path d="M139.076 28.7641L156.282 28.7642V32.9586H150.192L150.206 39.2193V45.4469H145.465L145.474 32.9534H139.076V28.7641Z" fill="#3B6EA0"/>
<path d="M96.4631 28.7747V45.3478H91.9723V28.7641L96.4631 28.7747Z" fill="#3B6EA0"/>
<path d="M163.166 28.7747V45.3478H158.675V28.7641L163.166 28.7747Z" fill="#3B6EA0"/>
<path d="M128.538 45.3478C126.783 45.3478 125.222 44.9886 123.855 44.2701C122.508 43.5517 121.436 42.5738 120.64 41.3366C119.865 40.0793 119.477 38.6524 119.477 37.0559C119.477 35.4395 119.865 34.0126 120.64 32.7753C121.436 31.5181 122.508 30.5402 123.855 29.8418C125.222 29.1233 126.783 28.7641 128.538 28.7641C130.273 28.7641 131.824 29.1233 133.191 29.8418C134.558 30.5402 135.63 31.5081 136.405 32.7454C137.181 33.9827 137.569 35.4195 137.569 37.0559C137.569 38.6524 137.181 40.0793 136.405 41.3366C135.63 42.5738 134.558 43.5517 133.191 44.2701C131.824 44.9886 130.273 45.3478 128.538 45.3478ZM128.538 41.5162C129.334 41.5162 130.048 41.3366 130.681 40.9773C131.314 40.6181 131.814 40.1093 132.181 39.4507C132.548 38.7722 132.732 37.9739 132.732 37.0559C132.732 36.118 132.548 35.3197 132.181 34.6612C131.814 34.0026 131.314 33.4938 130.681 33.1345C130.048 32.7753 129.334 32.5957 128.538 32.5957C127.742 32.5957 127.028 32.7753 126.395 33.1345C125.763 33.4938 125.253 34.0026 124.865 34.6612C124.497 35.3197 124.314 36.118 124.314 37.0559C124.314 37.9739 124.497 38.7722 124.865 39.4507C125.253 40.1093 125.763 40.6181 126.395 40.9773C127.028 41.3366 127.742 41.5162 128.538 41.5162Z" fill="#3B6EA0"/>
<path d="M170.59 44.2701C171.958 44.9886 173.519 45.3478 175.274 45.3478C177.009 45.3478 178.56 44.9886 179.927 44.2701C181.294 43.5517 182.366 42.5738 183.141 41.3366C183.506 40.7454 183.785 40.1168 183.978 39.4507H178.917C178.549 40.1092 178.049 40.6181 177.417 40.9773C176.784 41.3366 176.07 41.5162 175.274 41.5162C174.478 41.5162 173.764 41.3366 173.131 40.9773C172.498 40.6181 171.988 40.1092 171.601 39.4507C171.233 38.7722 171.05 37.9739 171.05 37.0559C171.05 36.118 171.233 35.3197 171.601 34.6612C171.988 34.0026 172.498 33.4938 173.131 33.1345C173.764 32.7753 174.478 32.5957 175.274 32.5957C176.07 32.5957 176.784 32.7753 177.417 33.1345C178.049 33.4938 178.549 34.0026 178.917 34.6612H183.989C183.795 33.9768 183.513 33.3382 183.141 32.7454C182.366 31.5081 181.294 30.5402 179.927 29.8418C178.56 29.1233 177.009 28.7641 175.274 28.7641C173.519 28.7641 171.958 29.1233 170.59 29.8418C169.243 30.5402 168.172 31.5181 167.376 32.7753C166.601 34.0126 166.213 35.4395 166.213 37.0559C166.213 38.6524 166.601 40.0793 167.376 41.3366C168.172 42.5738 169.243 43.5517 170.59 44.2701Z" fill="#3B6EA0"/>
<path d="M36.5744 45.3478C34.8193 45.3478 33.2582 44.9886 31.8909 44.2701C30.544 43.5517 29.4726 42.5738 28.6767 41.3366C27.9012 40.0793 27.5134 38.6524 27.5134 37.0559C27.5134 35.4395 27.9012 34.0126 28.6767 32.7753C29.4726 31.5181 30.544 30.5402 31.8909 29.8418C33.2582 29.1233 34.8193 28.7641 36.5744 28.7641C38.309 28.7641 39.86 29.1233 41.2273 29.8418C42.5946 30.5402 43.666 31.5081 44.4415 32.7454C45.2169 33.9827 45.6047 35.4195 45.6047 37.0559C45.6047 38.6524 45.2169 40.0793 44.4415 41.3366C43.666 42.5738 42.5946 43.5517 41.2273 44.2701C39.86 44.9886 38.309 45.3478 36.5744 45.3478ZM36.5744 41.5162C37.3703 41.5162 38.0845 41.3366 38.7172 40.9773C39.3498 40.6181 39.8498 40.1093 40.2171 39.4507C40.5844 38.7722 40.7681 37.9739 40.7681 37.0559C40.7681 36.118 40.5844 35.3197 40.2171 34.6612C39.8498 34.0026 39.3498 33.4938 38.7172 33.1345C38.0845 32.7753 37.3703 32.5957 36.5744 32.5957C35.7785 32.5957 35.0642 32.7753 34.4316 33.1345C33.799 33.4938 33.2888 34.0026 32.901 34.6612C32.5337 35.3197 32.35 36.118 32.35 37.0559C32.35 37.9739 32.5337 38.7722 32.901 39.4507C33.2888 40.1093 33.799 40.6181 34.4316 40.9773C35.0642 41.3366 35.7785 41.5162 36.5744 41.5162Z" fill="#3B6EA0"/>
<path d="M186.341 45.0221V28.7641H200.098V32.516H190.977V41.2703H200.098V45.0221H186.341ZM190.501 39.1101V35.1542H199.174V39.1101H190.501Z" fill="#3B6EA0"/>
</svg>
